<svg xmlns="http://www.w3.org/2000/svg" width="1259.481" height="1391.711" viewBox="0 0 1259.481 1391.711">
  <g id="Group_88" data-name="Group 88" transform="translate(11556.46 -5078.429)">
    <g id="Group_89" data-name="Group 89">
      <rect id="Rectangle_86" data-name="Rectangle 86" width="645" height="19" transform="translate(-10891.672 6386.494) rotate(-31)"/>
      <rect id="Rectangle_87" data-name="Rectangle 87" width="645" height="19" transform="translate(-11078.672 6284.902) rotate(-31)"/>
      <rect id="Rectangle_88" data-name="Rectangle 88" width="645" height="19" transform="translate(-11272.061 6177.53) rotate(-31)"/>
      <rect id="Rectangle_89" data-name="Rectangle 89" width="645" height="19" transform="translate(-11456.061 6067.53) rotate(-31)"/>
      <rect id="Rectangle_90" data-name="Rectangle 90" width="645" height="19" transform="translate(-11456.061 5770.53) rotate(-31)"/>
      <rect id="Rectangle_91" data-name="Rectangle 91" width="645" height="19" transform="translate(-11478.391 5458.53) rotate(-31)"/>
      <rect id="Rectangle_93" data-name="Rectangle 93" width="645" height="19" transform="translate(-11111.391 5679.53) rotate(-31)"/>
      <rect id="Rectangle_94" data-name="Rectangle 94" width="645" height="19" transform="translate(-10891.672 5729.53) rotate(-31)"/>
      <rect id="Rectangle_95" data-name="Rectangle 95" width="645" height="19" transform="translate(-10909.672 6067.53) rotate(-31)"/>
      <rect id="Rectangle_96" data-name="Rectangle 96" width="645" height="19" transform="translate(-11111.391 5994.622) rotate(-31)"/>
      <rect id="Rectangle_97" data-name="Rectangle 97" width="645" height="19" transform="translate(-11295.391 5884.622) rotate(-31)"/>
      <rect id="Rectangle_92" data-name="Rectangle 92" width="645" height="19" transform="translate(-11295.391 5565.53) rotate(-31)"/>
    </g>
    <g id="Group_86" data-name="Group 86" transform="translate(-171.389 63)">
      <path id="Union_20" data-name="Union 20" d="M572.09,1076.139a62.988,62.988,0,0,1,39.385-67.434V812.329a63.015,63.015,0,0,1,0-117.329V495.227a63.017,63.017,0,1,1,34,3.37V691.616a63.011,63.011,0,0,1,0,124.084v189.621a63.012,63.012,0,1,1-73.385,70.818ZM386.456,991.147a63.015,63.015,0,0,1,40.02-67.678V727.583a63.019,63.019,0,0,1,0-117.82V410.481a63.037,63.037,0,1,1,34,3.009V606.74a63.009,63.009,0,0,1,0,123.852V920.445a63.011,63.011,0,1,1-74.021,70.7Zm119.577,17.676,69.992,35.021ZM314.073,912.775l79.321,39.688ZM197.465,889.459a62.981,62.981,0,0,1,44.011-69.038V627.263a63.012,63.012,0,0,1,0-120.546V310.161a63.027,63.027,0,1,1,34,.761V505.938a63.013,63.013,0,0,1,0,122.086V819.642a63.011,63.011,0,1,1-78.011,69.817Zm-78.626-74.372,82.82,41.44ZM8.768,782.682a63.005,63.005,0,0,1,47.708-70.039V521.493a63.014,63.014,0,0,1,0-122.554V204.391a63,63,0,1,1,34-1.308V400.231a63.019,63.019,0,0,1,0,119.954v193.75A63.009,63.009,0,0,1,79.923,836.3,62.94,62.94,0,0,1,8.768,782.682Zm497.264-87.565,69.992,35.021ZM314.073,599.07l79.321,39.688ZM118.839,501.384l82.82,41.44ZM506.032,378.015l69.992,35.021ZM314.073,281.967l79.321,39.688ZM118.839,184.281l82.82,41.44Z" transform="translate(-10832.646 4944.901)" fill="#254441" stroke="#000" stroke-width="19"/>
      <path id="Union_16" data-name="Union 16" d="M572.09,1076.139a62.988,62.988,0,0,1,39.385-67.434V812.329a63.015,63.015,0,0,1,0-117.329V495.227a63.017,63.017,0,1,1,34,3.37V691.616a63.011,63.011,0,0,1,0,124.084v189.621a63.012,63.012,0,1,1-73.385,70.818ZM386.456,991.147a63.015,63.015,0,0,1,40.02-67.678V727.583a63.019,63.019,0,0,1,0-117.82V410.481a63.037,63.037,0,1,1,34,3.009V606.74a63.009,63.009,0,0,1,0,123.852V920.445a63.011,63.011,0,1,1-74.021,70.7Zm119.577,17.676,69.992,35.021ZM314.073,912.775l79.321,39.688ZM197.465,889.459a62.981,62.981,0,0,1,44.011-69.038V627.263a63.012,63.012,0,0,1,0-120.546V310.161a63.027,63.027,0,1,1,34,.761V505.938a63.013,63.013,0,0,1,0,122.086V819.642a63.011,63.011,0,1,1-78.011,69.817Zm-78.626-74.372,82.82,41.44ZM8.768,782.682a63.005,63.005,0,0,1,47.708-70.039V521.493a63.014,63.014,0,0,1,0-122.554V204.391a63,63,0,1,1,34-1.308V400.231a63.019,63.019,0,0,1,0,119.954v193.75A63.009,63.009,0,0,1,79.923,836.3,62.94,62.94,0,0,1,8.768,782.682Zm497.264-87.565,69.992,35.021ZM314.073,599.07l79.321,39.688ZM118.839,501.384l82.82,41.44ZM506.032,378.015l69.992,35.021ZM314.073,281.967l79.321,39.688ZM118.839,184.281l82.82,41.44Z" transform="translate(-11016.646 5057.261)" fill="#fff" stroke="#000" stroke-width="19"/>
      <path id="Union_12" data-name="Union 12" d="M572.09,1076.139a62.988,62.988,0,0,1,39.385-67.434V812.329a63.015,63.015,0,0,1,0-117.329V495.227a63.017,63.017,0,1,1,34,3.37V691.616a63.011,63.011,0,0,1,0,124.084v189.621a63.012,63.012,0,1,1-73.385,70.818ZM386.456,991.147a63.015,63.015,0,0,1,40.02-67.678V727.583a63.019,63.019,0,0,1,0-117.82V410.481a63.037,63.037,0,1,1,34,3.009V606.74a63.009,63.009,0,0,1,0,123.852V920.445a63.011,63.011,0,1,1-74.021,70.7Zm119.577,17.676,69.992,35.021ZM314.073,912.775l79.321,39.688ZM197.465,889.459a62.981,62.981,0,0,1,44.011-69.038V627.263a63.012,63.012,0,0,1,0-120.546V310.161a63.027,63.027,0,1,1,34,.761V505.938a63.013,63.013,0,0,1,0,122.086V819.642a63.011,63.011,0,1,1-78.011,69.817Zm-78.626-74.372,82.82,41.44ZM8.768,782.682a63.005,63.005,0,0,1,47.708-70.039V521.493a63.014,63.014,0,0,1,0-122.554V204.391a63,63,0,1,1,34-1.308V400.231a63.019,63.019,0,0,1,0,119.954v193.75A63.009,63.009,0,0,1,79.923,836.3,62.94,62.94,0,0,1,8.768,782.682Zm497.264-87.565,69.992,35.021ZM314.073,599.07l79.321,39.688ZM118.839,501.384l82.82,41.44ZM506.032,378.015l69.992,35.021ZM314.073,281.967l79.321,39.688ZM118.839,184.281l82.82,41.44Z" transform="translate(-11200.646 5152.261)" fill="#43aa8b" stroke="#000" stroke-width="19"/>
      <path id="Union_8" data-name="Union 8" d="M572.09,1076.139a62.988,62.988,0,0,1,39.385-67.434V812.329a63.015,63.015,0,0,1,0-117.329V495.227a63.017,63.017,0,1,1,34,3.37V691.616a63.011,63.011,0,0,1,0,124.084v189.621a63.012,63.012,0,1,1-73.385,70.818ZM386.456,991.147a63.015,63.015,0,0,1,40.02-67.678V727.583a63.019,63.019,0,0,1,0-117.82V410.481a63.037,63.037,0,1,1,34,3.009V606.74a63.009,63.009,0,0,1,0,123.852V920.445a63.011,63.011,0,1,1-74.021,70.7Zm119.577,17.676,69.992,35.021ZM314.073,912.775l79.321,39.688ZM197.465,889.459a62.981,62.981,0,0,1,44.011-69.038V627.263a63.012,63.012,0,0,1,0-120.546V310.161a63.027,63.027,0,1,1,34,.761V505.938a63.013,63.013,0,0,1,0,122.086V819.642a63.011,63.011,0,1,1-78.011,69.817Zm-78.626-74.372,82.82,41.44ZM8.768,782.682a63.005,63.005,0,0,1,47.708-70.039V521.493a63.014,63.014,0,0,1,0-122.554V204.391a63,63,0,1,1,34-1.308V400.231a63.019,63.019,0,0,1,0,119.954v193.75A63.009,63.009,0,0,1,79.923,836.3,62.94,62.94,0,0,1,8.768,782.682Zm497.264-87.565,69.992,35.021ZM314.073,599.07l79.321,39.688ZM118.839,501.384l82.82,41.44ZM506.032,378.015l69.992,35.021ZM314.073,281.967l79.321,39.688ZM118.839,184.281l82.82,41.44Z" transform="translate(-11383.646 5267.261)" fill="#fc7f3f" stroke="#000" stroke-width="19"/>
    </g>
  </g>
</svg>
